# xmcd
#
# Track frame offsets: 
#        150
#        13799
#        28417
#        42207
#        54329
#        67592
#        81028
#        93300
#        106041
#        119267
#        132326
#        143447
#        156476
#        168906
#        181823
#        193941
#        204418
#        218271
#        231081
#        244509
#
# Disc length: 3420 seconds
#
# Revision: 0
# Processed by: cddbd v1.5.2PL0 Copyright (c) Steve Scherf et al.
# Submitted via: ExactAudioCopy v1.0b4
#
DISCID=fd0d5a14
DTITLE=Les Paul and Mary Ford - America's Successful Duo * Their Great E
DTITLE=vergreens [CD1)
DYEAR=2010
DGENRE=Country
TTITLE0=It's Been A Long Long Time
TTITLE1=Who's Dream Are You
TTITLE2=Hawaiian Paradise
TTITLE3=Dark Eyes
TTITLE4=Rumors Are Flying
TTITLE5=Sweet Leilani
TTITLE6=My Isle Of Golden Dreams
TTITLE7=Aloha Oe
TTITLE8=Song Of The Islands
TTITLE9=Steel Guitar Rag
TTITLE10=Guitar Boogie
TTITLE11=What Would It Take
TTITLE12=One Sided Affair
TTITLE13=My Future Just Passed
TTITLE14=What Is This Thing Called Love
TTITLE15=The Swiss Woodpecker
TTITLE16=By The Light Of The Silvery Moon
TTITLE17=Lover
TTITLE18=Caravan
TTITLE19=Brazil
EXTD=
EXTT0=
EXTT1=
EXTT2=
EXTT3=
EXTT4=
EXTT5=
EXTT6=
EXTT7=
EXTT8=
EXTT9=
EXTT10=
EXTT11=
EXTT12=
EXTT13=
EXTT14=
EXTT15=
EXTT16=
EXTT17=
EXTT18=
EXTT19=
PLAYORDER=
